<svg xmlns="http://www.w3.org/2000/svg" viewBox="0 0 100 100" fill="none">
  <rect width="100" height="100" rx="20" fill="#0A0E1A"/>
  <circle cx="50" cy="50" r="42" fill="#1A2340" stroke="#3A4B78" stroke-width="2"/>
  <line x1="50" y1="20" x2="50" y2="86" stroke="#D4A84B" stroke-width="3.5" stroke-linecap="round"/>
  <path d="M 50 26 C 38 22 22 24 18 32 C 16 36 20 40 28 38 C 34 36 42 30 50 26" fill="#A5B4FC" opacity="0.9"/>
  <path d="M 50 30 C 40 27 28 29 24 34 C 23 36 26 38 32 37 C 36 36 44 32 50 30" fill="#818CF8" opacity="0.7"/>
  <path d="M 50 26 C 62 22 78 24 82 32 C 84 36 80 40 72 38 C 66 36 58 30 50 26" fill="#A5B4FC" opacity="0.9"/>
  <path d="M 50 30 C 60 27 72 29 76 34 C 77 36 74 38 68 37 C 64 36 56 32 50 30" fill="#818CF8" opacity="0.7"/>
  <path d="M 50 75 C 38 70 32 62 38 55 C 44 48 50 52 50 52 C 50 52 38 46 36 40 C 34 34 42 30 50 35" stroke="#D4A84B" stroke-width="2.5" fill="none" stroke-linecap="round"/>
  <path d="M 50 75 C 62 70 68 62 62 55 C 56 48 50 52 50 52 C 50 52 62 46 64 40 C 66 34 58 30 50 35" stroke="#D4A84B" stroke-width="2.5" fill="none" stroke-linecap="round"/>
  <circle cx="50" cy="20" r="4.5" fill="#A5B4FC"/>
</svg>
